<mxfile host="app.diagrams.net" modified="2020-12-07T12:32:05.923Z" agent="5.0 (Windows NT 10.0; WOW64) AppleWebKit/537.36 (KHTML, like Gecko) Chrome/80.0.3987.163 Safari/537.36" etag="vyN-RMxnMlLxscN9fvyY" version="13.10.8" type="github">
  <diagram id="C5RBs43oDa-KdzZeNtuy" name="Page-1">
    <mxGraphModel dx="1422" dy="794" grid="1" gridSize="10" guides="1" tooltips="1" connect="1" arrows="1" fold="1" page="1" pageScale="1" pageWidth="827" pageHeight="1169" math="0" shadow="0">
      <root>
        <mxCell id="WIyWlLk6GJQsqaUBKTNV-0" />
        <mxCell id="WIyWlLk6GJQsqaUBKTNV-1" parent="WIyWlLk6GJQsqaUBKTNV-0" />
        <mxCell id="pVyZZb6Da7SU6Qo7WRQK-0" value="&lt;br&gt;小王&lt;br&gt;100元" style="shape=actor;whiteSpace=wrap;html=1;" vertex="1" parent="WIyWlLk6GJQsqaUBKTNV-1">
          <mxGeometry x="110" y="152" width="40" height="60" as="geometry" />
        </mxCell>
        <mxCell id="pVyZZb6Da7SU6Qo7WRQK-1" value="&lt;br&gt;小李&lt;br&gt;100元" style="shape=actor;whiteSpace=wrap;html=1;" vertex="1" parent="WIyWlLk6GJQsqaUBKTNV-1">
          <mxGeometry x="200" y="152" width="40" height="60" as="geometry" />
        </mxCell>
        <mxCell id="pVyZZb6Da7SU6Qo7WRQK-10" value="" style="endArrow=classic;html=1;entryX=0.5;entryY=0;entryDx=0;entryDy=0;" edge="1" parent="WIyWlLk6GJQsqaUBKTNV-1" target="pVyZZb6Da7SU6Qo7WRQK-38">
          <mxGeometry width="50" height="50" relative="1" as="geometry">
            <mxPoint x="350" y="140" as="sourcePoint" />
            <mxPoint x="350" y="330" as="targetPoint" />
          </mxGeometry>
        </mxCell>
        <mxCell id="pVyZZb6Da7SU6Qo7WRQK-11" value="你支付500元给小王" style="edgeLabel;html=1;align=center;verticalAlign=middle;resizable=0;points=[];" vertex="1" connectable="0" parent="pVyZZb6Da7SU6Qo7WRQK-10">
          <mxGeometry x="0.1" y="-4" relative="1" as="geometry">
            <mxPoint x="-25" as="offset" />
          </mxGeometry>
        </mxCell>
        <mxCell id="pVyZZb6Da7SU6Qo7WRQK-15" value="余额不足" style="edgeStyle=orthogonalEdgeStyle;rounded=0;orthogonalLoop=1;jettySize=auto;html=1;entryX=0.433;entryY=0;entryDx=0;entryDy=0;entryPerimeter=0;" edge="1" parent="WIyWlLk6GJQsqaUBKTNV-1" source="pVyZZb6Da7SU6Qo7WRQK-13" target="pVyZZb6Da7SU6Qo7WRQK-16">
          <mxGeometry relative="1" as="geometry">
            <mxPoint x="290" y="650" as="targetPoint" />
          </mxGeometry>
        </mxCell>
        <mxCell id="pVyZZb6Da7SU6Qo7WRQK-19" value="充足" style="edgeStyle=orthogonalEdgeStyle;rounded=0;orthogonalLoop=1;jettySize=auto;html=1;entryX=0.5;entryY=0;entryDx=0;entryDy=0;" edge="1" parent="WIyWlLk6GJQsqaUBKTNV-1" source="pVyZZb6Da7SU6Qo7WRQK-13" target="pVyZZb6Da7SU6Qo7WRQK-20">
          <mxGeometry relative="1" as="geometry">
            <mxPoint x="350" y="530" as="targetPoint" />
          </mxGeometry>
        </mxCell>
        <mxCell id="pVyZZb6Da7SU6Qo7WRQK-13" value="验证你的离线，余额" style="rhombus;whiteSpace=wrap;html=1;" vertex="1" parent="WIyWlLk6GJQsqaUBKTNV-1">
          <mxGeometry x="310" y="370" width="80" height="80" as="geometry" />
        </mxCell>
        <mxCell id="pVyZZb6Da7SU6Qo7WRQK-16" value="交易失败" style="ellipse;whiteSpace=wrap;html=1;" vertex="1" parent="WIyWlLk6GJQsqaUBKTNV-1">
          <mxGeometry x="90" y="1050" width="120" height="80" as="geometry" />
        </mxCell>
        <mxCell id="pVyZZb6Da7SU6Qo7WRQK-17" value="交易成功" style="ellipse;whiteSpace=wrap;html=1;" vertex="1" parent="WIyWlLk6GJQsqaUBKTNV-1">
          <mxGeometry x="290" y="1050" width="120" height="80" as="geometry" />
        </mxCell>
        <mxCell id="pVyZZb6Da7SU6Qo7WRQK-22" style="edgeStyle=orthogonalEdgeStyle;rounded=0;orthogonalLoop=1;jettySize=auto;html=1;entryX=0.5;entryY=0;entryDx=0;entryDy=0;" edge="1" parent="WIyWlLk6GJQsqaUBKTNV-1" source="pVyZZb6Da7SU6Qo7WRQK-20" target="pVyZZb6Da7SU6Qo7WRQK-21">
          <mxGeometry relative="1" as="geometry" />
        </mxCell>
        <mxCell id="pVyZZb6Da7SU6Qo7WRQK-20" value="小王扣款记账50&lt;br&gt;小李收款记账50" style="rounded=1;whiteSpace=wrap;html=1;" vertex="1" parent="WIyWlLk6GJQsqaUBKTNV-1">
          <mxGeometry x="290" y="550" width="120" height="60" as="geometry" />
        </mxCell>
        <mxCell id="pVyZZb6Da7SU6Qo7WRQK-28" value="" style="edgeStyle=orthogonalEdgeStyle;rounded=0;orthogonalLoop=1;jettySize=auto;html=1;" edge="1" parent="WIyWlLk6GJQsqaUBKTNV-1" source="pVyZZb6Da7SU6Qo7WRQK-21" target="pVyZZb6Da7SU6Qo7WRQK-27">
          <mxGeometry relative="1" as="geometry" />
        </mxCell>
        <mxCell id="pVyZZb6Da7SU6Qo7WRQK-32" value="恢复" style="edgeLabel;html=1;align=center;verticalAlign=middle;resizable=0;points=[];" vertex="1" connectable="0" parent="pVyZZb6Da7SU6Qo7WRQK-28">
          <mxGeometry x="-0.25" y="1" relative="1" as="geometry">
            <mxPoint as="offset" />
          </mxGeometry>
        </mxCell>
        <mxCell id="pVyZZb6Da7SU6Qo7WRQK-33" style="edgeStyle=orthogonalEdgeStyle;rounded=0;orthogonalLoop=1;jettySize=auto;html=1;entryX=1;entryY=0.5;entryDx=0;entryDy=0;" edge="1" parent="WIyWlLk6GJQsqaUBKTNV-1" source="pVyZZb6Da7SU6Qo7WRQK-21" target="pVyZZb6Da7SU6Qo7WRQK-35">
          <mxGeometry relative="1" as="geometry">
            <mxPoint x="570" y="120" as="targetPoint" />
            <Array as="points">
              <mxPoint x="590" y="750" />
              <mxPoint x="590" y="172" />
            </Array>
          </mxGeometry>
        </mxCell>
        <mxCell id="pVyZZb6Da7SU6Qo7WRQK-34" value="没有恢复，继续交易" style="edgeLabel;html=1;align=center;verticalAlign=middle;resizable=0;points=[];" vertex="1" connectable="0" parent="pVyZZb6Da7SU6Qo7WRQK-33">
          <mxGeometry x="-0.1027" y="-3" relative="1" as="geometry">
            <mxPoint as="offset" />
          </mxGeometry>
        </mxCell>
        <mxCell id="pVyZZb6Da7SU6Qo7WRQK-21" value="网络是否恢复" style="rhombus;whiteSpace=wrap;html=1;" vertex="1" parent="WIyWlLk6GJQsqaUBKTNV-1">
          <mxGeometry x="310" y="710" width="80" height="80" as="geometry" />
        </mxCell>
        <mxCell id="pVyZZb6Da7SU6Qo7WRQK-26" style="edgeStyle=orthogonalEdgeStyle;rounded=0;orthogonalLoop=1;jettySize=auto;html=1;" edge="1" parent="WIyWlLk6GJQsqaUBKTNV-1" target="pVyZZb6Da7SU6Qo7WRQK-17">
          <mxGeometry relative="1" as="geometry">
            <mxPoint x="350" y="940" as="sourcePoint" />
          </mxGeometry>
        </mxCell>
        <mxCell id="pVyZZb6Da7SU6Qo7WRQK-29" value="验证通过" style="edgeLabel;html=1;align=center;verticalAlign=middle;resizable=0;points=[];" vertex="1" connectable="0" parent="pVyZZb6Da7SU6Qo7WRQK-26">
          <mxGeometry x="-0.2364" relative="1" as="geometry">
            <mxPoint as="offset" />
          </mxGeometry>
        </mxCell>
        <mxCell id="pVyZZb6Da7SU6Qo7WRQK-30" style="edgeStyle=orthogonalEdgeStyle;rounded=0;orthogonalLoop=1;jettySize=auto;html=1;" edge="1" parent="WIyWlLk6GJQsqaUBKTNV-1" source="pVyZZb6Da7SU6Qo7WRQK-27" target="pVyZZb6Da7SU6Qo7WRQK-16">
          <mxGeometry relative="1" as="geometry">
            <Array as="points">
              <mxPoint x="150" y="910" />
            </Array>
          </mxGeometry>
        </mxCell>
        <mxCell id="pVyZZb6Da7SU6Qo7WRQK-31" value="不通过" style="edgeLabel;html=1;align=center;verticalAlign=middle;resizable=0;points=[];" vertex="1" connectable="0" parent="pVyZZb6Da7SU6Qo7WRQK-30">
          <mxGeometry x="-0.68" y="-1" relative="1" as="geometry">
            <mxPoint as="offset" />
          </mxGeometry>
        </mxCell>
        <mxCell id="pVyZZb6Da7SU6Qo7WRQK-40" value="小李发现后" style="edgeLabel;html=1;align=center;verticalAlign=middle;resizable=0;points=[];" vertex="1" connectable="0" parent="pVyZZb6Da7SU6Qo7WRQK-30">
          <mxGeometry x="-0.3" y="-2" relative="1" as="geometry">
            <mxPoint as="offset" />
          </mxGeometry>
        </mxCell>
        <mxCell id="pVyZZb6Da7SU6Qo7WRQK-27" value="央行验证" style="rhombus;whiteSpace=wrap;html=1;" vertex="1" parent="WIyWlLk6GJQsqaUBKTNV-1">
          <mxGeometry x="310" y="870" width="80" height="80" as="geometry" />
        </mxCell>
        <mxCell id="pVyZZb6Da7SU6Qo7WRQK-35" value="离线交易" style="ellipse;whiteSpace=wrap;html=1;" vertex="1" parent="WIyWlLk6GJQsqaUBKTNV-1">
          <mxGeometry x="290" y="128" width="120" height="80" as="geometry" />
        </mxCell>
        <mxCell id="pVyZZb6Da7SU6Qo7WRQK-39" style="edgeStyle=orthogonalEdgeStyle;rounded=0;orthogonalLoop=1;jettySize=auto;html=1;entryX=0.5;entryY=0;entryDx=0;entryDy=0;" edge="1" parent="WIyWlLk6GJQsqaUBKTNV-1" source="pVyZZb6Da7SU6Qo7WRQK-38" target="pVyZZb6Da7SU6Qo7WRQK-13">
          <mxGeometry relative="1" as="geometry" />
        </mxCell>
        <mxCell id="pVyZZb6Da7SU6Qo7WRQK-38" value="&lt;span&gt;包子利用黑科技修改了离线余额为500&lt;/span&gt;" style="rounded=1;whiteSpace=wrap;html=1;" vertex="1" parent="WIyWlLk6GJQsqaUBKTNV-1">
          <mxGeometry x="290" y="280" width="120" height="40" as="geometry" />
        </mxCell>
      </root>
    </mxGraphModel>
  </diagram>
</mxfile>
